<svg width="223" height="26" viewBox="0 0 223 26" fill="none" xmlns="http://www.w3.org/2000/svg">
<path d="M84.6835 3.67369C85.7052 3.67369 86.5334 2.8513 86.5334 1.83684C86.5334 0.822383 85.7052 0 84.6835 0C83.6618 0 82.8335 0.822383 82.8335 1.83684C82.8335 2.8513 83.6618 3.67369 84.6835 3.67369Z" fill="#A671EA"/>
<path d="M3.8535 3.68408V9.93776C3.8535 10.3163 4.32482 10.4934 4.57725 10.2077L9.28159 4.88119C9.95415 4.12051 10.9233 3.68408 11.9436 3.68408H14.7927L7.474 11.9043C7.33984 12.055 7.33631 12.2794 7.4634 12.4354L15.1581 21.7844H12.1342C11.1792 21.7844 10.2754 21.3602 9.66994 20.6276L4.58784 14.4755C4.34247 14.1776 3.85527 14.3511 3.85527 14.7349V21.7844H1.77406C0.794355 21.7844 0 20.9956 0 20.0229V5.44556C0 4.4728 0.794355 3.68408 1.77406 3.68408H3.85527H3.8535Z" fill="#1D1E20"/>
<path d="M29.677 3.68408V5.15636C29.677 6.0853 28.9179 6.83897 27.9824 6.83897H22.1218C21.8941 6.83897 21.7087 7.023 21.7087 7.2491V10.2305C21.7087 10.4566 21.8941 10.6406 22.1218 10.6406H29.1563V12.0393C29.1563 12.9665 28.399 13.7184 27.4652 13.7184H22.1218C21.8941 13.7184 21.7087 13.9024 21.7087 14.1285V18.2211C21.7087 18.4472 21.8941 18.6312 22.1218 18.6312H29.677V19.9282C29.677 20.9536 28.8403 21.7844 27.8076 21.7844H20.143C18.9938 21.7844 18.0618 20.8589 18.0618 19.7179V5.75053C18.0618 4.60951 18.9938 3.68408 20.143 3.68408H29.677Z" fill="#1D1E20"/>
<path d="M45.9172 3.68408V5.15636C45.9172 6.0853 45.1582 6.83897 44.2226 6.83897H38.362C38.1343 6.83897 37.949 7.023 37.949 7.2491V10.2305C37.949 10.4566 38.1343 10.6406 38.362 10.6406H45.3965V12.0393C45.3965 12.9665 44.6392 13.7184 43.7054 13.7184H38.362C38.1343 13.7184 37.949 13.9024 37.949 14.1285V18.2211C37.949 18.4472 38.1343 18.6312 38.362 18.6312H45.9172V19.9282C45.9172 20.9536 45.0805 21.7844 44.0478 21.7844H36.3832C35.234 21.7844 34.302 20.8589 34.302 19.7179V5.75053C34.302 4.60951 35.234 3.68408 36.3832 3.68408H45.9172Z" fill="#1D1E20"/>
<path d="M60.8247 3.68408V5.31761C60.8247 6.215 60.0921 6.94238 59.1883 6.94238H54.311C54.0833 6.94238 53.8979 7.12641 53.8979 7.35251V10.567C53.8979 10.7931 54.0833 10.9771 54.311 10.9771H60.5652V12.2496C60.5652 13.2609 59.7391 14.0812 58.7206 14.0812H54.311C54.0833 14.0812 53.8979 14.2652 53.8979 14.4913V21.7861H52.1874C51.1177 21.7861 50.251 20.9255 50.251 19.8634V5.60681C50.251 4.54466 51.1177 3.68408 52.1874 3.68408H60.8247Z" fill="#1D1E20"/>
<path d="M67.349 10.8053H65.469C64.9642 10.8053 64.5564 10.3987 64.5564 9.89913V8.4251C64.5564 5.66282 66.8124 3.42285 69.5944 3.42285H71.0789C71.5838 3.42285 71.9916 3.82948 71.9916 4.329V6.19564C71.9916 6.69692 71.582 7.1018 71.0789 7.1018H69.5944C68.86 7.1018 68.2634 7.69246 68.2634 8.42334V9.89738C68.2634 10.3987 67.8539 10.8035 67.3508 10.8035L67.349 10.8053Z" fill="#1D1E20"/>
<path d="M82.1768 10.8055H80.2968C79.792 10.8055 79.3842 10.3989 79.3842 9.89933V8.4253C79.3842 7.69617 78.7893 7.10375 78.0532 7.10375H76.5686C76.0638 7.10375 75.656 6.69712 75.656 6.1976V4.33096C75.656 3.82968 76.0655 3.4248 76.5686 3.4248H78.0532C80.8352 3.4248 83.0912 5.66477 83.0912 8.42705V9.90108C83.0912 10.4024 82.6816 10.8072 82.1785 10.8072L82.1768 10.8055Z" fill="#A671EA"/>
<path d="M78.0532 21.9984H76.5686C76.0638 21.9984 75.656 21.5917 75.656 21.0922V19.2256C75.656 18.7243 76.0655 18.3194 76.5686 18.3194H78.0532C78.7875 18.3194 79.3842 17.7287 79.3842 16.9979V15.5238C79.3842 15.0226 79.7937 14.6177 80.2968 14.6177H82.1768C82.6816 14.6177 83.0894 15.0243 83.0894 15.5238V16.9979C83.0894 19.7601 80.8334 22.0001 78.0514 22.0001L78.0532 21.9984Z" fill="#1D1E20"/>
<path d="M71.077 21.9982H69.5924C66.8104 21.9982 64.5544 19.7582 64.5544 16.9959V15.5219C64.5544 15.0206 64.964 14.6157 65.4671 14.6157H67.347C67.8519 14.6157 68.2597 15.0224 68.2597 15.5219V16.9959C68.2597 17.725 68.8545 18.3175 69.5906 18.3175H71.0752C71.5801 18.3175 71.9878 18.7241 71.9878 19.2236V21.0902C71.9878 21.5915 71.5783 21.9964 71.0752 21.9964L71.077 21.9982Z" fill="#1D1E20"/>
<rect x="96.5334" y="7" width="1" height="12" fill="#E6E8EB"/>
<path d="M109.143 20V5.85938H112.073V12.1289H112.268L117.405 5.85938H120.94L115.666 12.1875L120.998 20H117.483L113.557 14.1602L112.073 15.957V20H109.143ZM122.61 20V9.39453H125.501V20H122.61ZM124.055 8.00781C123.176 8.00781 122.473 7.34375 122.473 6.54297C122.473 5.72266 123.176 5.05859 124.055 5.05859C124.915 5.05859 125.618 5.72266 125.618 6.54297C125.618 7.34375 124.915 8.00781 124.055 8.00781ZM132.112 20.2148C128.909 20.2148 126.917 18.0078 126.917 14.7266C126.917 11.4453 128.909 9.25781 132.112 9.25781C135.315 9.25781 137.327 11.4453 137.327 14.7266C137.327 18.0078 135.315 20.2148 132.112 20.2148ZM132.132 17.9688C133.616 17.9688 134.378 16.582 134.378 14.7266C134.378 12.8516 133.616 11.4648 132.132 11.4648C130.628 11.4648 129.847 12.8516 129.847 14.7266C129.847 16.582 130.628 17.9688 132.132 17.9688ZM144.798 12.5391C144.681 11.7969 144.017 11.3086 143.06 11.3086C142.123 11.3086 141.4 11.7578 141.419 12.4023C141.4 12.8711 141.79 13.2422 142.787 13.457L144.681 13.8477C146.732 14.2773 147.728 15.1953 147.748 16.7188C147.728 18.8086 145.853 20.2148 143.04 20.2148C140.169 20.2148 138.49 18.9258 138.255 16.8555H141.165C141.302 17.6953 141.986 18.125 143.04 18.125C144.095 18.125 144.798 17.6953 144.798 17.0117C144.798 16.4648 144.349 16.1328 143.353 15.918L141.595 15.5664C139.583 15.1758 138.529 14.1211 138.548 12.5586C138.529 10.5273 140.287 9.25781 143.021 9.25781C145.697 9.25781 147.357 10.5273 147.513 12.5391H144.798ZM149.125 20V5.85938H152.015V13.457H152.172L155.609 9.39453H158.93L154.984 13.9844L159.144 20H155.746L152.836 15.6836L152.015 16.6016V20H149.125ZM166.508 20H163.344L168.247 5.85938H172.016L176.899 20H173.755L172.7 16.7383H167.583L166.508 20ZM168.325 14.4531H171.958L170.18 9.04297H170.083L168.325 14.4531ZM181.46 20.1758C179.038 20.1758 177.144 18.2422 177.144 14.707C177.144 11.0742 179.116 9.25781 181.46 9.25781C183.237 9.25781 184.077 10.3125 184.468 11.1719H184.565V5.85938H187.456V20H184.605V18.3008H184.468C184.058 19.1797 183.179 20.1758 181.46 20.1758ZM182.358 17.8711C183.804 17.8711 184.624 16.6016 184.624 14.6875C184.624 12.7734 183.804 11.5625 182.358 11.5625C180.894 11.5625 180.112 12.832 180.112 14.6875C180.112 16.5625 180.894 17.8711 182.358 17.8711ZM189.38 20V9.39453H192.134V11.25H192.251C192.701 10.0195 193.775 9.25781 195.201 9.25781C196.665 9.25781 197.74 10.0195 198.091 11.25H198.189C198.638 10.0391 199.83 9.25781 201.392 9.25781C203.365 9.25781 204.732 10.5664 204.732 12.8711V20H201.841V13.4375C201.841 12.2266 201.138 11.6406 200.181 11.6406C199.087 11.6406 198.462 12.4023 198.462 13.5156V20H195.65V13.3594C195.65 12.3047 194.986 11.6406 194.009 11.6406C193.033 11.6406 192.271 12.4219 192.271 13.6328V20H189.38ZM206.558 20V9.39453H209.449V20H206.558ZM208.004 8.00781C207.125 8.00781 206.422 7.34375 206.422 6.54297C206.422 5.72266 207.125 5.05859 208.004 5.05859C208.863 5.05859 209.566 5.72266 209.566 6.54297C209.566 7.34375 208.863 8.00781 208.004 8.00781ZM214.186 13.8672V20H211.295V9.39453H214.049V11.25H214.166C214.655 10.0195 215.787 9.25781 217.35 9.25781C219.557 9.25781 221.022 10.7617 221.002 13.2422V20H218.131V13.75C218.131 12.4414 217.408 11.6602 216.217 11.6602C215.006 11.6602 214.186 12.4609 214.186 13.8672Z" fill="#1D1E20"/>
</svg>
