<svg width="334" height="34" viewBox="0 0 334 34" fill="none" xmlns="http://www.w3.org/2000/svg">
<path d="M115.977 5.00957C117.371 5.00957 118.5 3.88814 118.5 2.50479C118.5 1.12143 117.371 0 115.977 0C114.584 0 113.455 1.12143 113.455 2.50479C113.455 3.88814 114.584 5.00957 115.977 5.00957Z" fill="#A671EA"/>
<path d="M5.75478 5.02381V13.5516C5.75478 14.0678 6.39748 14.3092 6.7417 13.9196L13.1567 6.65622C14.0738 5.61894 15.3954 5.02381 16.7867 5.02381H20.6718L10.6918 16.2332C10.5089 16.4388 10.5041 16.7447 10.6774 16.9574L21.1701 29.706H17.0466C15.7444 29.706 14.5119 29.1276 13.6863 28.1286L6.75614 19.7394C6.42155 19.3331 5.75718 19.5697 5.75718 20.0932V29.706H2.91917C1.58321 29.706 0.5 28.6305 0.5 27.304V7.42583C0.5 6.09934 1.58321 5.02381 2.91917 5.02381H5.75718H5.75478Z" fill="#1D1E20"/>
<path d="M40.9688 5.02381V7.03146C40.9688 8.2982 39.9337 9.32593 38.6579 9.32593H30.6662C30.3557 9.32593 30.1029 9.57688 30.1029 9.8852V13.9507C30.1029 14.259 30.3557 14.51 30.6662 14.51H40.2586V16.4172C40.2586 17.6816 39.226 18.7069 37.9526 18.7069H30.6662C30.3557 18.7069 30.1029 18.9579 30.1029 19.2662V24.847C30.1029 25.1553 30.3557 25.4063 30.6662 25.4063H40.9688V27.1749C40.9688 28.5731 39.8278 29.706 38.4196 29.706H27.9678C26.4008 29.706 25.1298 28.444 25.1298 26.8881V7.8417C25.1298 6.28577 26.4008 5.02381 27.9678 5.02381H40.9688Z" fill="#1D1E20"/>
<path d="M63.1144 5.02381V7.03146C63.1144 8.2982 62.0793 9.32593 60.8036 9.32593H52.8119C52.5013 9.32593 52.2486 9.57688 52.2486 9.8852V13.9507C52.2486 14.259 52.5013 14.51 52.8119 14.51H62.4043V16.4172C62.4043 17.6816 61.3716 18.7069 60.0983 18.7069H52.8119C52.5013 18.7069 52.2486 18.9579 52.2486 19.2662V24.847C52.2486 25.1553 52.5013 25.4063 52.8119 25.4063H63.1144V27.1749C63.1144 28.5731 61.9734 29.706 60.5652 29.706H50.1135C48.5464 29.706 47.2755 28.444 47.2755 26.8881V7.8417C47.2755 6.28577 48.5464 5.02381 50.1135 5.02381H63.1144Z" fill="#1D1E20"/>
<path d="M83.4427 5.02381V7.25135C83.4427 8.47506 82.4437 9.46694 81.2112 9.46694H74.5603C74.2498 9.46694 73.9971 9.7179 73.9971 10.0262V14.4096C73.9971 14.7179 74.2498 14.9689 74.5603 14.9689H83.0888V16.7041C83.0888 18.0831 81.9623 19.2017 80.5733 19.2017H74.5603C74.2498 19.2017 73.9971 19.4526 73.9971 19.7609V29.7084H71.6646C70.2058 29.7084 69.0239 28.5349 69.0239 27.0865V7.64571C69.0239 6.19733 70.2058 5.02381 71.6646 5.02381H83.4427Z" fill="#1D1E20"/>
<path d="M92.3395 14.7347H89.7759C89.0874 14.7347 88.5314 14.1802 88.5314 13.499V11.489C88.5314 7.72225 91.6077 4.66775 95.4013 4.66775H97.4257C98.1142 4.66775 98.6702 5.22225 98.6702 5.90342V8.44883C98.6702 9.13239 98.1118 9.6845 97.4257 9.6845H95.4013C94.4 9.6845 93.5864 10.4899 93.5864 11.4866V13.4966C93.5864 14.1802 93.0279 14.7323 92.3419 14.7323L92.3395 14.7347Z" fill="#1D1E20"/>
<path d="M112.559 14.7347H109.996C109.307 14.7347 108.751 14.1802 108.751 13.499V11.489C108.751 10.4947 107.94 9.68687 106.936 9.68687H104.912C104.223 9.68687 103.667 9.13237 103.667 8.4512V5.90578C103.667 5.22223 104.226 4.67012 104.912 4.67012H106.936C110.73 4.67012 113.806 7.72462 113.806 11.4914V13.5014C113.806 14.185 113.248 14.7371 112.562 14.7371L112.559 14.7347Z" fill="#A671EA"/>
<path d="M106.936 29.9976H104.912C104.223 29.9976 103.667 29.4431 103.667 28.7619V26.2165C103.667 25.533 104.226 24.9809 104.912 24.9809H106.936C107.937 24.9809 108.751 24.1754 108.751 23.1788V21.1687C108.751 20.4852 109.31 19.9331 109.996 19.9331H112.559C113.248 19.9331 113.804 20.4875 113.804 21.1687V23.1788C113.804 26.9455 110.727 30 106.934 30L106.936 29.9976Z" fill="#1D1E20"/>
<path d="M97.4232 29.9976H95.3988C91.6051 29.9976 88.5288 26.9431 88.5288 23.1764V21.1663C88.5288 20.4828 89.0873 19.9307 89.7733 19.9307H92.3369C93.0253 19.9307 93.5814 20.4852 93.5814 21.1663V23.1764C93.5814 24.1707 94.3926 24.9785 95.3964 24.9785H97.4208C98.1092 24.9785 98.6652 25.533 98.6652 26.2142V28.7596C98.6652 29.4431 98.1068 29.9952 97.4208 29.9952L97.4232 29.9976Z" fill="#1D1E20"/>
<rect x="138.5" y="9" width="1" height="16" fill="#D9D9D9"/>
<path d="M161.664 28V6.78906H166.059V16.1934H166.352L174.057 6.78906H179.359L171.449 16.2812L179.447 28H174.174L168.285 19.2402L166.059 21.9355V28H161.664ZM182.065 28V12.0918H186.401V28H182.065ZM184.233 10.0117C182.914 10.0117 181.86 9.01562 181.86 7.81445C181.86 6.58398 182.914 5.58789 184.233 5.58789C185.522 5.58789 186.577 6.58398 186.577 7.81445C186.577 9.01562 185.522 10.0117 184.233 10.0117ZM196.518 28.3223C191.714 28.3223 188.725 25.0117 188.725 20.0898C188.725 15.168 191.714 11.8867 196.518 11.8867C201.323 11.8867 204.341 15.168 204.341 20.0898C204.341 25.0117 201.323 28.3223 196.518 28.3223ZM196.548 24.9531C198.774 24.9531 199.917 22.873 199.917 20.0898C199.917 17.2773 198.774 15.1973 196.548 15.1973C194.292 15.1973 193.12 17.2773 193.12 20.0898C193.12 22.873 194.292 24.9531 196.548 24.9531ZM215.747 16.8086C215.571 15.6953 214.575 14.9629 213.14 14.9629C211.734 14.9629 210.65 15.6367 210.679 16.6035C210.65 17.3066 211.236 17.8633 212.73 18.1855L215.571 18.7715C218.648 19.416 220.142 20.793 220.171 23.0781C220.142 26.2129 217.329 28.3223 213.111 28.3223C208.804 28.3223 206.284 26.3887 205.933 23.2832H210.298C210.503 24.543 211.529 25.1875 213.111 25.1875C214.693 25.1875 215.747 24.543 215.747 23.5176C215.747 22.6973 215.073 22.1992 213.579 21.877L210.943 21.3496C207.925 20.7637 206.343 19.1816 206.372 16.8379C206.343 13.791 208.98 11.8867 213.081 11.8867C217.095 11.8867 219.585 13.791 219.82 16.8086H215.747ZM222.437 28V6.78906H226.773V18.1855H227.007L232.164 12.0918H237.144L231.226 18.9766L237.466 28H232.369L228.004 21.5254L226.773 22.9023V28H222.437ZM248.912 28H244.166L251.52 6.78906H257.174L264.498 28H259.782L258.2 23.1074H250.524L248.912 28ZM251.637 19.6797H257.086L254.42 11.5645H254.274L251.637 19.6797ZM271.54 28.2637C267.907 28.2637 265.065 25.3633 265.065 20.0605C265.065 14.6113 268.024 11.8867 271.54 11.8867C274.206 11.8867 275.466 13.4688 276.052 14.7578H276.198V6.78906H280.534V28H276.257V25.4512H276.052C275.436 26.7695 274.118 28.2637 271.54 28.2637ZM272.887 24.8066C275.055 24.8066 276.286 22.9023 276.286 20.0312C276.286 17.1602 275.055 15.3438 272.887 15.3438C270.69 15.3438 269.518 17.248 269.518 20.0312C269.518 22.8438 270.69 24.8066 272.887 24.8066ZM283.62 28V12.0918H287.751V14.875H287.927C288.601 13.0293 290.212 11.8867 292.351 11.8867C294.548 11.8867 296.159 13.0293 296.687 14.875H296.833C297.507 13.0586 299.294 11.8867 301.638 11.8867C304.597 11.8867 306.648 13.8496 306.648 17.3066V28H302.312V18.1562C302.312 16.3398 301.257 15.4609 299.821 15.4609C298.181 15.4609 297.243 16.6035 297.243 18.2734V28H293.025V18.0391C293.025 16.457 292.029 15.4609 290.564 15.4609C289.099 15.4609 287.956 16.6328 287.956 18.4492V28H283.62ZM309.587 28V12.0918H313.923V28H309.587ZM311.755 10.0117C310.437 10.0117 309.382 9.01562 309.382 7.81445C309.382 6.58398 310.437 5.58789 311.755 5.58789C313.045 5.58789 314.099 6.58398 314.099 7.81445C314.099 9.01562 313.045 10.0117 311.755 10.0117ZM321.229 18.8008V28H316.893V12.0918H321.023V14.875H321.199C321.932 13.0293 323.631 11.8867 325.975 11.8867C329.285 11.8867 331.482 14.1426 331.453 17.8633V28H327.146V18.625C327.146 16.6621 326.062 15.4902 324.275 15.4902C322.459 15.4902 321.229 16.6914 321.229 18.8008Z" fill="#1D1E20"/>
</svg>
