<svg width="24" height="25" viewBox="0 0 24 25" fill="none" xmlns="http://www.w3.org/2000/svg">
<path fill-rule="evenodd" clip-rule="evenodd" d="M12 1.00293C8.96243 1.00293 6.5 3.46536 6.5 6.50293C6.5 9.5405 8.96243 12.0029 12 12.0029C15.0376 12.0029 17.5 9.5405 17.5 6.50293C17.5 3.46536 15.0376 1.00293 12 1.00293ZM8.5 6.50293C8.5 4.56993 10.067 3.00293 12 3.00293C13.933 3.00293 15.5 4.56993 15.5 6.50293C15.5 8.43593 13.933 10.0029 12 10.0029C10.067 10.0029 8.5 8.43593 8.5 6.50293Z" fill="currentColor"/>
<path d="M8 14.0029C4.68629 14.0029 2 16.6892 2 20.0029V22.0029C2 22.5552 2.44772 23.0029 3 23.0029C3.55228 23.0029 4 22.5552 4 22.0029V20.0029C4 17.7938 5.79086 16.0029 8 16.0029H16C18.2091 16.0029 20 17.7938 20 20.0029V22.0029C20 22.5552 20.4477 23.0029 21 23.0029C21.5523 23.0029 22 22.5552 22 22.0029V20.0029C22 16.6892 19.3137 14.0029 16 14.0029H8Z" fill="currentColor"/>
</svg>
