<svg width="36" height="36" viewBox="0 0 36 36" fill="none" xmlns="http://www.w3.org/2000/svg">
<path fill-rule="evenodd" clip-rule="evenodd" d="M16.7071 12.2929C17.0976 12.6834 17.0976 13.3166 16.7071 13.7071L12.4142 18L16.7071 22.2929C17.0976 22.6834 17.0976 23.3166 16.7071 23.7071C16.3166 24.0976 15.6834 24.0976 15.2929 23.7071L10.2929 18.7071C9.90237 18.3166 9.90237 17.6834 10.2929 17.2929L15.2929 12.2929C15.6834 11.9024 16.3166 11.9024 16.7071 12.2929Z" fill="currentColor"/>
<path fill-rule="evenodd" clip-rule="evenodd" d="M25.7071 12.2929C26.0976 12.6834 26.0976 13.3166 25.7071 13.7071L21.4142 18L25.7071 22.2929C26.0976 22.6834 26.0976 23.3166 25.7071 23.7071C25.3166 24.0976 24.6834 24.0976 24.2929 23.7071L19.2929 18.7071C18.9024 18.3166 18.9024 17.6834 19.2929 17.2929L24.2929 12.2929C24.6834 11.9024 25.3166 11.9024 25.7071 12.2929Z" fill="currentColor"/>
</svg>
