<svg xmlns="http://www.w3.org/2000/svg" viewBox="0 0 100 100" preserveAspectRatio="xMidYMid" width="104" height="104" style="shape-rendering: auto; display: block; background: transparent;" xmlns:xlink="http://www.w3.org/1999/xlink"><g><g transform="rotate(0 50 50)">
  <rect fill="#885eca" height="12" width="3" ry="1.2" rx="1.2" y="24" x="48.5">
    <animate repeatCount="indefinite" begin="-1.1458333333333333s" dur="1.25s" keyTimes="0;1" values="1;0" attributeName="opacity"></animate>
  </rect>
</g><g transform="rotate(30 50 50)">
  <rect fill="#885eca" height="12" width="3" ry="1.2" rx="1.2" y="24" x="48.5">
    <animate repeatCount="indefinite" begin="-1.0416666666666665s" dur="1.25s" keyTimes="0;1" values="1;0" attributeName="opacity"></animate>
  </rect>
</g><g transform="rotate(60 50 50)">
  <rect fill="#885eca" height="12" width="3" ry="1.2" rx="1.2" y="24" x="48.5">
    <animate repeatCount="indefinite" begin="-0.9374999999999999s" dur="1.25s" keyTimes="0;1" values="1;0" attributeName="opacity"></animate>
  </rect>
</g><g transform="rotate(90 50 50)">
  <rect fill="#885eca" height="12" width="3" ry="1.2" rx="1.2" y="24" x="48.5">
    <animate repeatCount="indefinite" begin="-0.8333333333333333s" dur="1.25s" keyTimes="0;1" values="1;0" attributeName="opacity"></animate>
  </rect>
</g><g transform="rotate(120 50 50)">
  <rect fill="#885eca" height="12" width="3" ry="1.2" rx="1.2" y="24" x="48.5">
    <animate repeatCount="indefinite" begin="-0.7291666666666665s" dur="1.25s" keyTimes="0;1" values="1;0" attributeName="opacity"></animate>
  </rect>
</g><g transform="rotate(150 50 50)">
  <rect fill="#885eca" height="12" width="3" ry="1.2" rx="1.2" y="24" x="48.5">
    <animate repeatCount="indefinite" begin="-0.6249999999999999s" dur="1.25s" keyTimes="0;1" values="1;0" attributeName="opacity"></animate>
  </rect>
</g><g transform="rotate(180 50 50)">
  <rect fill="#885eca" height="12" width="3" ry="1.2" rx="1.2" y="24" x="48.5">
    <animate repeatCount="indefinite" begin="-0.5208333333333333s" dur="1.25s" keyTimes="0;1" values="1;0" attributeName="opacity"></animate>
  </rect>
</g><g transform="rotate(210 50 50)">
  <rect fill="#885eca" height="12" width="3" ry="1.2" rx="1.2" y="24" x="48.5">
    <animate repeatCount="indefinite" begin="-0.41666666666666663s" dur="1.25s" keyTimes="0;1" values="1;0" attributeName="opacity"></animate>
  </rect>
</g><g transform="rotate(240 50 50)">
  <rect fill="#885eca" height="12" width="3" ry="1.2" rx="1.2" y="24" x="48.5">
    <animate repeatCount="indefinite" begin="-0.31249999999999994s" dur="1.25s" keyTimes="0;1" values="1;0" attributeName="opacity"></animate>
  </rect>
</g><g transform="rotate(270 50 50)">
  <rect fill="#885eca" height="12" width="3" ry="1.2" rx="1.2" y="24" x="48.5">
    <animate repeatCount="indefinite" begin="-0.20833333333333331s" dur="1.25s" keyTimes="0;1" values="1;0" attributeName="opacity"></animate>
  </rect>
</g><g transform="rotate(300 50 50)">
  <rect fill="#885eca" height="12" width="3" ry="1.2" rx="1.2" y="24" x="48.5">
    <animate repeatCount="indefinite" begin="-0.10416666666666666s" dur="1.25s" keyTimes="0;1" values="1;0" attributeName="opacity"></animate>
  </rect>
</g><g transform="rotate(330 50 50)">
  <rect fill="#885eca" height="12" width="3" ry="1.2" rx="1.2" y="24" x="48.5">
    <animate repeatCount="indefinite" begin="0s" dur="1.25s" keyTimes="0;1" values="1;0" attributeName="opacity"></animate>
  </rect>
</g><g></g></g><!-- [ldio] generated by https://loading.io --></svg>