<svg width="34" height="34" viewBox="0 0 34 34" fill="none" xmlns="http://www.w3.org/2000/svg">
<rect x="0.5" y="0.5" width="33" height="33" rx="16.5" fill="white"/>
<rect x="0.5" y="0.5" width="33" height="33" rx="16.5" stroke="#E6E8EB"/>
<path d="M11.4087 21.509C10.997 21.509 10.6632 21.8427 10.6632 22.2545C10.6632 22.6662 10.997 23 11.4087 23H23.337C23.7487 23 24.0825 22.6662 24.0825 22.2545C24.0825 21.8427 23.7487 21.509 23.337 21.509H11.4087ZM13.8714 11.5272C13.5802 11.236 13.1082 11.236 12.8171 11.5272L10.5407 13.8035C10.1966 14.1476 10.1966 14.7055 10.5407 15.0496L12.8171 17.3259C13.1082 17.6171 13.5802 17.6171 13.8714 17.3259C14.1625 17.0348 14.1625 16.5628 13.8714 16.2716L12.0263 14.4265L13.8714 12.5815C14.1625 12.2903 14.1625 11.8183 13.8714 11.5272ZM18.1184 16.2903C17.7066 16.2903 17.3729 16.6241 17.3729 17.0359C17.3729 17.4476 17.7066 17.7814 18.1184 17.7814H23.337C23.7487 17.7814 24.0825 17.4476 24.0825 17.0359C24.0825 16.6241 23.7487 16.2903 23.337 16.2903H18.1184ZM18.1184 11.0717C17.7066 11.0717 17.3729 11.4055 17.3729 11.8172C17.3729 12.229 17.7066 12.5627 18.1184 12.5627H23.337C23.7487 12.5627 24.0825 12.229 24.0825 11.8172C24.0825 11.4055 23.7487 11.0717 23.337 11.0717H18.1184Z" fill="#ACACAD"/>
</svg>
