<svg viewBox="0 0 20 20" fill="none" xmlns="http://www.w3.org/2000/svg">
<path d="M10 14C9.68296 13.994 9.38008 13.885 9.15136 13.6944L2.34621 7.79096C2.12413 7.59154 2 7.32509 2 7.04781C2 6.77054 2.12413 6.50409 2.34621 6.30467C2.57138 6.10958 2.87661 6 3.19485 6C3.51309 6 3.81832 6.10958 4.04349 6.30467L10 11.4719L15.9565 6.30467C16.1817 6.10958 16.4869 6 16.8051 6C17.1234 6 17.4286 6.10958 17.6538 6.30467C17.8759 6.50409 18 6.77054 18 7.04781C18 7.32509 17.8759 7.59154 17.6538 7.79096L10.8486 13.6944C10.6199 13.885 10.317 13.994 10 14Z" fill="currentColor"/>
</svg>
