<svg width="24" height="25" viewBox="0 0 24 25" fill="none" xmlns="http://www.w3.org/2000/svg">
<path fill-rule="evenodd" clip-rule="evenodd" d="M6 10.0029V7.00293C6 5.41163 6.63214 3.88551 7.75736 2.76029C8.88258 1.63507 10.4087 1.00293 12 1.00293C13.5913 1.00293 15.1174 1.63507 16.2426 2.76029C17.3679 3.88551 18 5.41163 18 7.00293V10.0029H19C20.6569 10.0029 22 11.3461 22 13.0029V20.0029C22 21.6598 20.6569 23.0029 19 23.0029H5C3.34315 23.0029 2 21.6598 2 20.0029V13.0029C2 11.3461 3.34315 10.0029 5 10.0029H6ZM9.17157 4.1745C9.92172 3.42436 10.9391 3.00293 12 3.00293C13.0609 3.00293 14.0783 3.42436 14.8284 4.1745C15.5786 4.92465 16 5.94206 16 7.00293V10.0029H8V7.00293C8 5.94206 8.42143 4.92465 9.17157 4.1745ZM5 12.0029C4.44772 12.0029 4 12.4506 4 13.0029V20.0029C4 20.5552 4.44772 21.0029 5 21.0029H19C19.5523 21.0029 20 20.5552 20 20.0029V13.0029C20 12.4506 19.5523 12.0029 19 12.0029H5Z" fill="currentColor"/>
</svg>
