<svg width="21" height="20" viewBox="0 0 21 20" fill="none" xmlns="http://www.w3.org/2000/svg">
<mask id="mask0_450_16061" style="mask-type:alpha" maskUnits="userSpaceOnUse" x="0" y="0" width="21" height="20">
<rect x="0.5" width="20" height="20" fill="#D9D9D9"/>
</mask>
<g mask="url(#mask0_450_16061)">
<path d="M9.6665 10.8332H5.49984C5.26373 10.8332 5.06581 10.7533 4.90609 10.5936C4.74637 10.4339 4.6665 10.2359 4.6665 9.99984C4.6665 9.76373 4.74637 9.56581 4.90609 9.40609C5.06581 9.24637 5.26373 9.1665 5.49984 9.1665H9.6665V4.99984C9.6665 4.76373 9.74637 4.56581 9.90609 4.40609C10.0658 4.24637 10.2637 4.1665 10.4998 4.1665C10.7359 4.1665 10.9339 4.24637 11.0936 4.40609C11.2533 4.56581 11.3332 4.76373 11.3332 4.99984V9.1665H15.4998C15.7359 9.1665 15.9339 9.24637 16.0936 9.40609C16.2533 9.56581 16.3332 9.76373 16.3332 9.99984C16.3332 10.2359 16.2533 10.4339 16.0936 10.5936C15.9339 10.7533 15.7359 10.8332 15.4998 10.8332H11.3332V14.9998C11.3332 15.2359 11.2533 15.4339 11.0936 15.5936C10.9339 15.7533 10.7359 15.8332 10.4998 15.8332C10.2637 15.8332 10.0658 15.7533 9.90609 15.5936C9.74637 15.4339 9.6665 15.2359 9.6665 14.9998V10.8332Z" fill="white"/>
</g>
</svg>
