<svg width="266" height="174" viewBox="0 0 266 174" fill="none" xmlns="http://www.w3.org/2000/svg">
<path fill-rule="evenodd" clip-rule="evenodd" d="M115.161 65.8094C113.145 63.7934 113.145 60.5249 115.161 58.5089L120.918 52.7523C121.397 52.2724 121.269 51.4643 120.641 51.206C114.566 48.7056 107.32 49.9232 102.385 54.8588C97.4501 59.7936 96.2321 67.0377 98.7309 73.1124L71.8629 99.9804C69.3429 102.5 69.3429 106.586 71.8629 109.106C74.3828 111.626 78.4685 111.626 80.9885 109.106L107.856 82.2386C113.931 84.7384 121.176 83.5207 126.111 78.5854C131.047 73.6499 132.265 66.4043 129.764 60.329C129.506 59.7014 128.698 59.5729 128.218 60.0528L122.462 65.8094C120.446 67.8253 117.177 67.8253 115.161 65.8094Z" fill="#A671EA"/>
<path fill-rule="evenodd" clip-rule="evenodd" d="M104.981 25.7734C105.067 24.7368 105.934 23.9395 106.974 23.9395H120.07C121.111 23.9395 121.977 24.7368 122.064 25.7734L122.643 32.7206C125.439 33.4194 128.102 34.456 130.585 35.7846L136.49 30.7874C137.284 30.1155 138.461 30.1645 139.196 30.9L148.457 40.1607C149.193 40.8963 149.242 42.0728 148.57 42.8668L143.914 48.3694C145.495 50.9542 146.749 53.7611 147.618 56.7324L154.922 57.3411C155.958 57.4275 156.756 58.294 156.756 59.3342V72.4309C156.756 73.4711 155.958 74.3376 154.922 74.424L147.976 75.0029C147.272 77.8169 146.227 80.4954 144.886 82.9916L149.482 88.4228C150.154 89.2169 150.105 90.3934 149.369 91.1289L140.109 100.39C139.373 101.125 138.197 101.174 137.403 100.502L132.372 96.2457C129.395 98.0732 126.122 99.466 122.642 100.335L122.063 107.282C121.977 108.319 121.11 109.116 120.07 109.116H106.974C105.933 109.116 105.067 108.319 104.981 107.282L104.372 99.977C102.468 99.4205 100.633 98.7059 98.8794 97.8485L108.898 87.8304C110.586 88.2466 112.351 88.4674 114.168 88.4674C126.284 88.4674 136.107 78.6448 136.107 66.528C136.107 54.4111 126.284 44.5885 114.168 44.5885C102.051 44.5885 92.2281 54.4111 92.2281 66.528C92.2281 68.5011 92.4885 70.4133 92.977 72.2323L83.0284 82.1808C81.8889 79.9183 80.9887 77.5146 80.3611 75.0029L73.413 74.4239C72.3764 74.3375 71.5791 73.471 71.5791 72.4308V59.3341C71.5791 58.2939 72.3764 57.4274 73.413 57.341L80.7191 56.7321C81.5878 53.7609 82.8417 50.954 84.423 48.3692L79.7668 42.8664C79.0949 42.0724 79.1438 40.8958 79.8793 40.1603L89.1401 30.8996C89.8756 30.164 91.0521 30.1151 91.8462 30.787L97.7522 35.7844C99.8407 34.6669 102.056 33.756 104.372 33.0789L104.981 25.7734Z" fill="#D7B8FF"/>
<path fill-rule="evenodd" clip-rule="evenodd" d="M173.587 8.18283C172.553 8.06641 171.603 8.76174 171.401 9.78215L170.76 13.0208C169.428 13.2526 168.136 13.621 166.903 14.1125L164.481 11.5458C163.767 10.7893 162.592 10.7062 161.779 11.3548L157.303 14.9244C156.49 15.573 156.31 16.7366 156.889 17.6009L158.687 20.2867C157.644 21.6277 156.769 23.113 156.099 24.7141L152.8 24.6184C151.76 24.5882 150.871 25.3601 150.754 26.3937L150.114 32.0826C149.997 33.1163 150.693 34.0666 151.713 34.2685L154.753 34.8698C154.968 36.4812 155.382 38.0386 155.972 39.513L153.66 41.6952C152.903 42.4091 152.82 43.5837 153.469 44.3969L157.038 48.8727C157.687 49.6859 158.851 49.8662 159.715 49.2874L162.112 47.6821C163.459 48.7335 164.952 49.6147 166.563 50.2891L166.467 53.5876C166.437 54.6273 167.209 55.5166 168.242 55.633L173.931 56.2738C174.965 56.3902 175.915 55.6948 176.117 54.6744L176.719 51.6347C178.712 51.3686 180.622 50.798 182.395 49.9667L184.375 52.0652C185.089 52.8217 186.264 52.9047 187.077 52.2562L191.553 48.6866C192.366 48.038 192.546 46.8743 191.967 46.0101L190.198 43.3681C191.101 42.0617 191.852 40.6354 192.42 39.112L195.519 39.202C196.558 39.2321 197.448 38.4603 197.564 37.4267L198.205 31.7377C198.321 30.7041 197.626 29.7538 196.605 29.5519L193.367 28.9113C193.069 27.2013 192.547 25.5587 191.828 24.0194L194.179 21.8009C194.936 21.087 195.019 19.9124 194.37 19.0992L190.8 14.6234C190.152 13.8102 188.988 13.6299 188.124 14.2087L185.192 16.1724C183.892 15.2768 182.474 14.5325 180.961 13.9679L181.051 10.869C181.081 9.82927 180.309 8.93997 179.276 8.82355L173.587 8.18283ZM172.742 44.491C179.493 45.2513 185.581 40.3956 186.341 33.6455C187.101 26.8954 182.246 20.807 175.495 20.0468C168.745 19.2866 162.657 24.1423 161.897 30.8924C161.137 37.6425 165.992 43.7308 172.742 44.491Z" fill="#E9D7FF"/>
<path d="M11.7656 150.312C11.7656 155.562 14.2656 160.719 18.7656 162.688L16.6719 165.469C13.4688 163.906 11.2188 160.906 10.0156 157.219C8.78125 161.109 6.48438 164.344 3.23438 166L1.04688 163.188C5.64062 161.031 8.20312 155.594 8.23438 150.312V145.812H11.7656V150.312ZM25.0156 143.531V171.812H21.5781V155.469H15.6406V152.656H21.5781V143.531H25.0156ZM52.4844 143.531V171.812H48.9844V143.531H52.4844ZM33.9531 145.844V152.906H40.7969V145.844H44.2344V165.156H30.4844V145.844H33.9531ZM33.9531 162.312H40.7969V155.625H33.9531V162.312ZM71.2344 147.406C71.2344 151.781 75.5156 156.156 81.4219 157.188L79.8594 160.094C75.125 159.094 71.25 156.234 69.4219 152.438C67.5469 156.203 63.6719 159.078 58.9531 160.094L57.4219 157.188C63.2656 156.125 67.5156 151.75 67.5469 147.406V145.312H71.2344V147.406ZM82.4531 165.312V168.188H56.6406V165.312H82.4531ZM115.328 144.812V147.594H107.141C107.453 150.25 110.906 152.781 116.359 153.438L115.047 156.188C109.984 155.578 106.25 153.344 104.734 150.281C103.219 153.328 99.5156 155.578 94.4531 156.188L93.1719 153.438C98.625 152.781 102.031 150.25 102.359 147.594H94.2344V144.812H115.328ZM117.672 157.75V160.562H106.766V165.719H103.328V160.562H91.8594V157.75H117.672ZM114.828 168.406V171.219H94.9844V163.125H98.4531V168.406H114.828ZM143.047 143.531V171.812H139.547V143.531H143.047ZM124.516 145.844V152.906H131.359V145.844H134.797V165.156H121.047V145.844H124.516ZM124.516 162.312H131.359V155.625H124.516V162.312ZM172.953 156.5V159.312H161.766V161.656C166.828 162 169.797 163.75 169.828 166.688C169.797 169.938 166.141 171.75 160.047 171.75C153.891 171.75 150.203 169.938 150.203 166.688C150.203 163.75 153.203 161.984 158.328 161.656V159.312H147.203V156.5H172.953ZM160.047 164.281C155.922 164.312 153.703 165.125 153.734 166.688C153.703 168.25 155.922 169.094 160.047 169.094C164.078 169.094 166.328 168.25 166.359 166.688C166.328 165.125 164.078 164.312 160.047 164.281ZM170.641 144.781V147.562H162.516C163.062 149.891 166.438 151.984 171.734 152.469L170.516 155.219C165.391 154.703 161.578 152.656 160.047 149.781C158.516 152.641 154.766 154.703 149.641 155.219L148.453 152.469C153.641 151.984 157.016 149.859 157.609 147.562H149.547V144.781H170.641Z" fill="#A671EA"/>
<path d="M198.391 143.531V158.688H194.891V143.531H198.391ZM183.141 160V162.906H194.922V160H198.391V171.438H179.703V160H183.141ZM183.141 168.625H194.922V165.625H183.141V168.625ZM182.984 144.781C187.328 144.75 190.578 147.469 190.578 151.406C190.578 155.25 187.328 157.969 182.984 157.969C178.609 157.969 175.359 155.25 175.359 151.406C175.359 147.469 178.609 144.75 182.984 144.781ZM182.984 147.688C180.516 147.688 178.734 149.125 178.766 151.406C178.734 153.656 180.516 155.094 182.984 155.125C185.422 155.094 187.172 153.656 187.172 151.406C187.172 149.125 185.422 147.688 182.984 147.688ZM226.078 143.531V171.781H222.641V143.531H226.078ZM207.578 146.281V161.719C211.547 161.656 215.766 161.297 220.109 160.438L220.547 163.344C215.578 164.375 210.953 164.688 206.578 164.688H204.141V146.281H207.578ZM252.297 143.531V154.25H256.641V157.094H252.297V171.812H248.828V143.531H252.297ZM244.547 146.219V149.031H234.797V162C239.188 162 242.656 161.781 246.547 161.094L246.953 164.031C242.578 164.781 238.766 164.906 233.672 164.906H231.328V146.219H244.547ZM261.266 169.25C259.922 169.25 258.828 168.156 258.828 166.812C258.828 165.5 259.922 164.406 261.266 164.406C262.547 164.406 263.672 165.5 263.672 166.812C263.672 168.156 262.547 169.25 261.266 169.25Z" fill="#414448"/>
</svg>
