<svg width="18" height="18" viewBox="0 0 18 18" fill="none" xmlns="http://www.w3.org/2000/svg">
<path d="M17.3333 8.99984C17.3333 10.1526 17.1145 11.2359 16.677 12.2498C16.2395 13.2637 15.6458 14.1457 14.8958 14.8957C14.1458 15.6457 13.2638 16.2394 12.25 16.6769C11.2361 17.1144 10.1527 17.3332 8.99996 17.3332C7.9444 17.3332 6.94093 17.1457 5.98954 16.7707C5.03815 16.3957 4.19093 15.8783 3.44788 15.2186C2.70482 14.5589 2.09718 13.7811 1.62496 12.8853C1.15274 11.9894 0.854126 11.0137 0.729126 9.95817C0.701348 9.69428 0.763848 9.48942 0.916626 9.34359C1.0694 9.19775 1.24996 9.11095 1.45829 9.08317C1.66663 9.05539 1.86801 9.10053 2.06246 9.21859C2.2569 9.33664 2.36801 9.5415 2.39579 9.83317C2.60413 11.5137 3.33676 12.9096 4.59371 14.0207C5.85065 15.1318 7.3194 15.6873 8.99996 15.6873C10.8611 15.6873 12.4375 15.0415 13.7291 13.7498C15.0208 12.4582 15.6666 10.8818 15.6666 9.02067C15.6666 7.15956 15.0208 5.58317 13.7291 4.2915C12.4375 2.99984 10.8611 2.354 8.99996 2.354C7.76385 2.354 6.64232 2.65609 5.63538 3.26025C4.62843 3.86442 3.83329 4.6665 3.24996 5.6665H4.83329C5.0694 5.6665 5.26732 5.74636 5.42704 5.90609C5.58676 6.06581 5.66663 6.26373 5.66663 6.49984C5.66663 6.73595 5.58676 6.93387 5.42704 7.09359C5.26732 7.25331 5.0694 7.33317 4.83329 7.33317H1.49996C1.26385 7.33317 1.06593 7.25331 0.906209 7.09359C0.746487 6.93387 0.666626 6.73595 0.666626 6.49984V3.1665C0.666626 2.93039 0.746487 2.73248 0.906209 2.57275C1.06593 2.41303 1.26385 2.33317 1.49996 2.33317C1.73607 2.33317 1.93399 2.41303 2.09371 2.57275C2.25343 2.73248 2.33329 2.93039 2.33329 3.1665V3.99984C3.09718 2.98595 4.05552 2.17692 5.20829 1.57275C6.36107 0.968587 7.62496 0.666504 8.99996 0.666504C10.1527 0.666504 11.2361 0.885254 12.25 1.32275C13.2638 1.76025 14.1458 2.354 14.8958 3.104C15.6458 3.854 16.2395 4.73595 16.677 5.74984C17.1145 6.76373 17.3333 7.84706 17.3333 8.99984Z" fill="#A671EA"/>
</svg>
