<svg  viewBox="0 0 12 12" fill="none" xmlns="http://www.w3.org/2000/svg">
<path d="M6 8.0625C5.85139 8.05927 5.70941 8.00048 5.6022 7.89777L2.41229 4.71544C2.30819 4.60794 2.25 4.46431 2.25 4.31484C2.25 4.16537 2.30819 4.02174 2.41229 3.91424C2.51784 3.80907 2.66091 3.75 2.81009 3.75C2.95926 3.75 3.10234 3.80907 3.20789 3.91424L6 6.69971L8.79211 3.91424C8.89766 3.80907 9.04074 3.75 9.18991 3.75C9.33909 3.75 9.48217 3.80907 9.58771 3.91424C9.69182 4.02174 9.75 4.16537 9.75 4.31484C9.75 4.46431 9.69182 4.60794 9.58771 4.71544L6.3978 7.89777C6.29059 8.00048 6.14861 8.05927 6 8.0625Z" fill="currentColor"/>
</svg>
